<svg id="visual" viewBox="0 0 900 600" width="900" height="600" xmlns="http://www.w3.org/2000/svg" xmlns:xlink="http://www.w3.org/1999/xlink" version="1.1"><path d="M0 247L13.7 242C27.3 237 54.7 227 82 216C109.3 205 136.7 193 163.8 203C191 213 218 245 245.2 237C272.3 229 299.7 181 327 173C354.3 165 381.7 197 409 211C436.3 225 463.7 221 491 226C518.3 231 545.7 245 573 242C600.3 239 627.7 219 654.8 211C682 203 709 207 736.2 198C763.3 189 790.7 167 818 166C845.3 165 872.7 185 886.3 195L900 205L900 0L886.3 0C872.7 0 845.3 0 818 0C790.7 0 763.3 0 736.2 0C709 0 682 0 654.8 0C627.7 0 600.3 0 573 0C545.7 0 518.3 0 491 0C463.7 0 436.3 0 409 0C381.7 0 354.3 0 327 0C299.7 0 272.3 0 245.2 0C218 0 191 0 163.8 0C136.7 0 109.3 0 82 0C54.7 0 27.3 0 13.7 0L0 0Z" fill="#bffcfb"></path><path d="M0 295L13.7 301C27.3 307 54.7 319 82 317C109.3 315 136.7 299 163.8 308C191 317 218 351 245.2 344C272.3 337 299.7 289 327 274C354.3 259 381.7 277 409 286C436.3 295 463.7 295 491 297C518.3 299 545.7 303 573 297C600.3 291 627.7 275 654.8 268C682 261 709 263 736.2 263C763.3 263 790.7 261 818 263C845.3 265 872.7 271 886.3 274L900 277L900 203L886.3 193C872.7 183 845.3 163 818 164C790.7 165 763.3 187 736.2 196C709 205 682 201 654.8 209C627.7 217 600.3 237 573 240C545.7 243 518.3 229 491 224C463.7 219 436.3 223 409 209C381.7 195 354.3 163 327 171C299.7 179 272.3 227 245.2 235C218 243 191 211 163.8 201C136.7 191 109.3 203 82 214C54.7 225 27.3 235 13.7 240L0 245Z" fill="#a9efee"></path><path d="M0 373L13.7 380C27.3 387 54.7 401 82 404C109.3 407 136.7 399 163.8 410C191 421 218 451 245.2 452C272.3 453 299.7 425 327 421C354.3 417 381.7 437 409 441C436.3 445 463.7 433 491 433C518.3 433 545.7 445 573 447C600.3 449 627.7 441 654.8 433C682 425 709 417 736.2 413C763.3 409 790.7 409 818 403C845.3 397 872.7 385 886.3 379L900 373L900 275L886.3 272C872.7 269 845.3 263 818 261C790.7 259 763.3 261 736.2 261C709 261 682 259 654.8 266C627.7 273 600.3 289 573 295C545.7 301 518.3 297 491 295C463.7 293 436.3 293 409 284C381.7 275 354.3 257 327 272C299.7 287 272.3 335 245.2 342C218 349 191 315 163.8 306C136.7 297 109.3 313 82 315C54.7 317 27.3 305 13.7 299L0 293Z" fill="#92e2e2"></path><path d="M0 445L13.7 453C27.3 461 54.7 477 82 479C109.3 481 136.7 469 163.8 478C191 487 218 517 245.2 523C272.3 529 299.7 511 327 503C354.3 495 381.7 497 409 499C436.3 501 463.7 503 491 508C518.3 513 545.7 521 573 524C600.3 527 627.7 525 654.8 518C682 511 709 499 736.2 488C763.3 477 790.7 467 818 465C845.3 463 872.7 469 886.3 472L900 475L900 371L886.3 377C872.7 383 845.3 395 818 401C790.7 407 763.3 407 736.2 411C709 415 682 423 654.8 431C627.7 439 600.3 447 573 445C545.7 443 518.3 431 491 431C463.7 431 436.3 443 409 439C381.7 435 354.3 415 327 419C299.7 423 272.3 451 245.2 450C218 449 191 419 163.8 408C136.7 397 109.3 405 82 402C54.7 399 27.3 385 13.7 378L0 371Z" fill="#7bd5d5"></path><path d="M0 601L13.7 601C27.3 601 54.7 601 82 601C109.3 601 136.7 601 163.8 601C191 601 218 601 245.2 601C272.3 601 299.7 601 327 601C354.3 601 381.7 601 409 601C436.3 601 463.7 601 491 601C518.3 601 545.7 601 573 601C600.3 601 627.7 601 654.8 601C682 601 709 601 736.2 601C763.3 601 790.7 601 818 601C845.3 601 872.7 601 886.3 601L900 601L900 473L886.3 470C872.7 467 845.3 461 818 463C790.7 465 763.3 475 736.2 486C709 497 682 509 654.8 516C627.7 523 600.3 525 573 522C545.7 519 518.3 511 491 506C463.7 501 436.3 499 409 497C381.7 495 354.3 493 327 501C299.7 509 272.3 527 245.2 521C218 515 191 485 163.8 476C136.7 467 109.3 479 82 477C54.7 475 27.3 459 13.7 451L0 443Z" fill="#62c9c9"></path></svg>